<?xml version="1.0" encoding="UTF-8" standalone="no"?>
<!-- Creator: CorelDRAW -->

<svg
   xml:space="preserve"
   width="19.625999in"
   height="6.9580998in"
   style="clip-rule:evenodd;fill-rule:evenodd;image-rendering:optimizeQuality;shape-rendering:geometricPrecision;text-rendering:geometricPrecision"
   viewBox="0 0 19.489953 6.90987"
   version="1.1"
   id="svg1"
   sodipodi:docname="cangkruan-official.svg"
   inkscape:version="1.3.2 (091e20e, 2023-11-25, custom)"
   inkscape:export-filename="cangkruan-official.png"
   inkscape:export-xdpi="300"
   inkscape:export-ydpi="300"
   xmlns:inkscape="http://www.inkscape.org/namespaces/inkscape"
   xmlns:sodipodi="http://sodipodi.sourceforge.net/DTD/sodipodi-0.dtd"
   xmlns="http://www.w3.org/2000/svg"
   xmlns:svg="http://www.w3.org/2000/svg"><sodipodi:namedview
   id="namedview1"
   pagecolor="#ffffff"
   bordercolor="#000000"
   borderopacity="0.25"
   inkscape:showpageshadow="2"
   inkscape:pageopacity="0.0"
   inkscape:pagecheckerboard="true"
   inkscape:deskcolor="#d1d1d1"
   inkscape:document-units="in"
   inkscape:zoom="0.49640036"
   inkscape:cx="1144.2377"
   inkscape:cy="333.40024"
   inkscape:window-width="1920"
   inkscape:window-height="1094"
   inkscape:window-x="-11"
   inkscape:window-y="-11"
   inkscape:window-maximized="1"
   inkscape:current-layer="Layer_x0020_1" />
 <defs
   id="defs1">
  <style
   type="text/css"
   id="style1">
   <![CDATA[
    .str0 {stroke:#1F1A17;stroke-width:0.00689674}
    .fil0 {fill:#1F1A17}
    .fil11 {fill:#901E78}
    .fil10 {fill:#009A46}
    .fil7 {fill:#106F88}
    .fil8 {fill:#2E838E}
    .fil4 {fill:#593B65}
    .fil6 {fill:#AE2C2A}
    .fil3 {fill:#C4337B}
    .fil9 {fill:#D36622}
    .fil5 {fill:#F0BC0D}
    .fil1 {fill:#DA251D;fill-rule:nonzero}
    .fil2 {fill:white;fill-rule:nonzero}
    .fil12 {fill:#1F1A17;fill-opacity:0.250980}
    .fil13 {fill:#1F1A17;fill-opacity:0.290196}
    .fil14 {fill:#1F1A17;fill-opacity:0.388235}
   ]]>
  </style>
 </defs>
 <g
   id="Layer_x0020_1"
   inkscape:label="Layer 1"
   inkscape:groupmode="layer">
  <metadata
   id="CorelCorpID_0Corel-Layer" />
  <rect
   class="fil0 str0"
   x="0.00344728"
   y="0.0034467301"
   width="19.483006"
   height="6.9029799"
   id="rect1"
   style="display:none" />
  <g
   id="_47433992">
   
   
   
   <polygon
   id="_64212000"
   class="fil3"
   points="2.83794,5.65374 2.83794,1.08269 4.656,1.08269 4.656,5.65374 " />
   <polygon
   id="_64210952"
   class="fil4"
   points="16.8758,5.72219 16.8758,1.15115 18.6938,1.15115 18.6938,5.72219 " />
   <polygon
   id="_64209904"
   class="fil5"
   points="6.82644,5.59345 6.82644,1.0224 8.64451,1.0224 8.64451,5.59345 " />
   <polygon
   id="_64208856"
   class="fil6"
   points="8.8359,5.80508 8.8359,1.23403 10.654,1.23403 10.654,5.80508 " />
   <polygon
   id="_64207808"
   class="fil7"
   points="10.8241,5.8156 10.8241,1.24455 12.6422,1.24455 12.6422,5.8156 " />
   <polygon
   id="_64206760"
   class="fil8"
   points="12.8706,5.67883 12.8706,1.10778 14.6887,1.10778 14.6887,5.67883 " />
   <polygon
   id="_64205712"
   class="fil9"
   points="4.83864,5.91911 4.83864,1.34806 6.6567,1.34806 6.6567,5.91911 " />
   <polygon
   id="_64204664"
   class="fil10"
   points="14.8745,5.89077 14.8745,1.31973 16.6926,1.31973 16.6926,5.89077 " />
   <polygon
   id="_64203632"
   class="fil11"
   points="0.828172,5.83674 0.828172,1.26569 2.64624,1.26569 2.64624,5.83674 " />
   <polygon
   id="_64199296"
   class="fil12"
   points="1.87532,2.68651 1.88114,2.68651 1.88454,5.83674 0.917232,5.83674 0.913838,2.68651 1.15796,2.68651 1.87532,1.67653 " />
   <polygon
   id="_64199056"
   class="fil12"
   points="0.990887,3.08437 0.990887,2.83189 1.28751,2.83189 1.28751,3.08437 " />
   <polygon
   id="_64197728"
   class="fil12"
   points="1.47451,3.08437 1.47451,2.83189 1.77113,2.83189 1.77113,3.08437 " />
   <polygon
   id="_64196840"
   class="fil12"
   points="0.984436,5.7228 0.984436,5.47032 1.28106,5.47032 1.28106,5.7228 " />
   <path
   id="_64196008"
   class="fil12"
   d="m 11.2038,4.89358 c -0.09314,-0.14724 0.147916,-0.533247 0.367244,-0.659441 0.166523,-0.095819 0.387703,-0.154223 0.59217,-0.123778 0.09723,0.014482 0.291739,0.0279 0.478952,0.024666 V 4.601351 C 12.475807,4.5677943 12.324849,4.4792314 12.1685,4.4309074 12.04525,4.3928189 11.916366,4.4007791 11.773853,4.4255902 11.484135,4.5182623 11.402594,4.5816862 11.2038,4.89358 Z m 1.66682,-0.773108 c 0.109077,-0.013731 0.194524,-0.038057 0.224215,-0.077784 0.0926,-0.123907 0.252138,0.069136 0.328878,0.05318 0.07674,-0.015952 0.268578,-0.10636 0.295985,-0.154223 C 13.747108,3.893782 13.884137,3.760828 13.85673,3.712969 13.82932,3.665102 13.80038,3.822547 13.730661,3.814012 13.660951,3.805472 13.585446,3.679185 13.566535,3.565635 13.520315,3.569415 13.487575,3.58256 13.44861,3.558465 13.41232,3.536027 13.387,3.425359 13.43911,3.420362 c 0.07112,-0.00681 0.09652,0.00365 0.138729,0.030973 0.06339,0.0764 0.08442,0.172442 0.129314,0.208826 0.007,-0.085236 0.05475,-0.26755 0.115493,-0.259312 0.03119,-0.029737 0.02511,-0.036704 0.06701,-0.038874 C 13.832126,3.350758 13.811086,3.322147 13.748996,3.282576 13.689376,3.272485 13.592029,3.273306 13.467598,3.229025 13.348187,3.186178 13.228781,3.17163 13.109366,3.100454 c -0.01839,-0.014869 -0.0203,-0.037506 -0.0025,-0.044641 0.192174,0.068365 0.358193,0.04558 0.492273,0.04558 C 13.507429,2.98314 13.329806,2.922504 13.148172,2.85702 13.114552,2.844904 13.064152,2.827341 13.045534,2.798261 c -0.0072,-0.085032 0.03852,-0.108084 0.137028,-0.069136 0.122441,0.04762 0.254011,0.086268 0.350803,0.090408 0.101266,0.00311 0.185532,0.010036 0.245112,0.030859 0.264954,0.013352 0.583369,0.483495 0.583443,0.509597 2e-5,0.01219 -0.0258,-0.074957 -0.01839,-0.094693 0.0046,-0.012339 0.0172,-0.063048 0.0303,-0.064006 0.02189,-0.00161 0.07087,0.057301 0.08643,0.068088 0.004,0.020334 -5.59e-4,0.071923 -0.01359,0.154653 0.0326,0.021965 0.09104,0.164505 0.02503,0.19997 0,0 -0.04541,-0.011307 -0.05097,-0.03758 -0.0035,-0.016386 -0.0021,-0.022023 -0.0014,-0.015205 0.02098,0.209315 -0.02046,0.429713 -0.107603,0.599106 -0.116936,0.22735 -0.419392,0.396926 -0.501726,0.412862 0,0 -0.105977,0.019756 -0.15332,-0.00966 C 13.598861,4.53759 13.546228,4.502535 13.484059,4.446861 l 0.08222,0.074457 0.07674,0.063814 c 0.04387,0.075653 0.01013,0.139526 -0.137032,0.186134 l -0.142513,0.047863 c 0.02403,0.035391 0.054,0.047562 0.09,0.036517 0.08538,-0.059885 0.130467,-0.034906 0.16214,-0.00993 0.01106,0.065183 -0.04802,0.114676 -0.0877,0.131249 -0.107115,0.017132 -0.241292,-0.035934 -0.350803,-0.147201 -0.0116,-0.046424 0.0067,-0.078312 0.05481,-0.09573 0.02876,-0.028068 0.10231,-0.021269 0.153476,-0.031907 -0.149828,-0.063345 -0.277269,0.0061 -0.449461,-0.111681 -0.02211,0.00658 -0.04385,0.011667 -0.06526,0.015471 z" />
   <path
   id="_64195120"
   class="fil13"
   d="m 13.1644,1.23802 c 0,0 0.09901,0.081365 -0.0552,0.165162 -0.154195,0.083793 -0.07097,0.30669 0.0094,0.408034 0.04423,0.055792 0.03383,0.081529 0.0084,0.122691 -0.03268,0.052941 -0.08531,0.107138 -0.06599,0.090772 0.06392,-0.054138 0.174522,-0.058701 0.162077,-0.165131 -0.01022,-0.087046 -0.06513,-0.109527 -0.09852,-0.218139 -0.03443,-0.111951 0.011,-0.112182 0.09969,-0.17731 0.04482,-0.032908 0.01254,-0.136262 -0.0599,-0.2260789 z" />
   <path
   id="_64192624"
   class="fil12"
   d="m 11.754,3.25815 c -0.528696,0.00646 -0.438049,-0.473338 -0.488461,-0.841317 0.177458,0.110735 0.26077,0.465221 0.445075,0.487124 -0.03864,0.033002 -0.191217,-0.24564 0.07062,-0.651101 0.205718,-0.271155 0.605338,-0.277019 0.860881,-0.247255 v 0.351081 c -0.189125,0.046557 -0.325625,0.162562 -0.368202,0.251082 -0.0427,0.075505 -0.08207,0.323424 -0.03755,0.373175 L 12.35377,2.749695 c 0.05225,0.2091 0.02598,0.209612 0.0061,0.365711 0.209354,0.382464 0.274752,0.461147 0.219945,0.621227 C 12.552065,3.817748 12.164091,3.528057 12.029639,3.49113 11.998599,3.48262 12.192068,3.726378 12.166381,3.719383 11.994529,3.6725094 11.889944,3.554154 11.754,3.25815 Z m 1.11657,-1.21116 c 0.09129,0.024936 0.175926,0.072369 0.272113,0.068232 0.0913,-0.00394 0.14613,-0.092809 0.235232,-0.104827 0.08127,-0.010975 0.147275,0.046819 0.227632,0.039046 0.07459,-0.00724 -0.265521,0.211273 -0.194329,0.202664 0.07506,-0.00906 0.21939,0.069824 0.291794,1.447e-4 0.265704,-0.255727 0.689725,-0.366341 0.707096,-0.394276 0.09469,0.152807 -0.206445,0.459756 -0.332815,0.492914 -0.182643,0.088426 0.201792,0.053598 0.171496,0.098771 -0.172493,0.257209 -0.465648,0.181235 -0.697263,0.062978 -0.09266,-0.029964 -0.07923,0.064002 -0.09346,0.114754 -0.02182,0.077807 -0.209968,-0.099819 -0.339051,-0.226287 -0.08629,-0.03699 -0.169709,-0.056452 -0.248443,-0.062747 z" />
   <path
   id="_64190440"
   class="fil12"
   d="M 2.11181,2.66532 H 2.6392 L 2.64624,5.83674 H 2.11885 Z m 0.720843,0 h 0.601143 l 0.783152,0.51025 0.00921,2.47817 H 2.841868 L 2.832658,2.66532 Z" />
   <polygon
   id="_64189112"
   class="fil13"
   points="2.20034,3.21279 2.20034,2.76305 2.44215,2.76305 2.44215,3.21279 " />
   <polygon
   id="_64187784"
   class="fil12"
   points="1.01023,3.46309 1.01023,3.21061 1.30685,3.21061 1.30685,3.46309 " />
   <polygon
   id="_64186456"
   class="fil13"
   points="2.99659,3.7651 2.99659,3.31536 3.23841,3.31536 3.23841,3.7651 " />
   <polygon
   id="_64184992"
   class="fil13"
   points="3.02077,4.3332 3.02077,3.88346 3.26259,3.88346 3.26259,4.3332 " />
   <path
   id="_64183608"
   class="fil12"
   d="m 11.5083,1.24455 c -0.112557,0.185981 -0.03555,0.57467 0.03904,0.75863 0.04423,0.109128 0.03383,0.159462 0.0084,0.239971 -0.03267,0.103545 -0.08531,0.209553 -0.06599,0.177544 0.06392,-0.105887 0.174518,-0.114817 0.162073,-0.322982 -0.01021,-0.170249 -0.06513,-0.214221 -0.09853,-0.426656 -0.03443,-0.218972 0.01101,-0.219417 0.09969,-0.346808 0.01218,-0.017488 0.01865,-0.045165 0.02019,-0.0797 z" />
   <path
   id="_64182072"
   class="fil12"
   d="M 6.01529,2.3669 C 6.0281921,2.357243 6.297251,2.177994 6.297251,2.177994 l 0.15999,-0.039605 c 0.02555,-0.00803 0.04072,-0.00365 0.047464,0.015267 0.01,0.021941 0.019994,0.043887 0.029991,0.065832 0.00745,0.017582 8.484e-4,0.025816 -0.01214,0.0298 L 6.307588,2.31035 c -0.090127,0.031688 -0.1826,0.05664 -0.272957,0.087671 0.00221,0.00602 -0.00111,0.00674 -0.00905,0.014994 -0.787179,0.302745 -0.862777,0.506039 -0.832754,1.0514 l 0.14457,2.4547 H 5.26079 L 5.133341,3.540695 C 5.083797,2.849222 5.300243,2.64786 6.009919,2.376355 c 5.86e-5,-0.00339 0.00153,-0.00657 0.00538,-0.00945 z" />
   <path
   id="_64179904"
   class="fil12"
   d="M 6.14067,3.00981 C 6.15058,3.00168 6.357296,2.850778 6.357296,2.850778 L 6.48021,2.8174398 c 0.019631,-0.00676 0.031286,-0.00307 0.036462,0.012851 0.00768,0.018473 0.015361,0.036947 0.023048,0.05542 0.00572,0.014802 6.49e-4,0.021734 -0.00933,0.025089 l -0.165154,0.051405 c -0.069245,0.026676 -0.140285,0.047679 -0.209706,0.073804 0.00169,0.00507 -8.523e-4,0.00568 -0.00696,0.012621 -0.604771,0.254859 -0.662854,0.426007 -0.639782,0.885102 l 0.106649,1.98431 H 5.556983 l -0.0939,-1.9201 c -0.038061,-0.582106 0.128227,-0.75162 0.673453,-0.980182 4.3e-5,-0.00286 0.00118,-0.00553 0.00413,-0.00795 z" />
   <polygon
   id="_64178576"
   class="fil12"
   points="8.20987,4.38188 8.20987,4.30557 8.32429,4.30605 8.32429,4.38236 " />
   <polygon
   id="_64177248"
   class="fil12"
   points="8.39268,4.38728 8.39268,4.31098 8.50711,4.31145 8.50711,4.38776 " />
   <polygon
   id="_64175888"
   class="fil12"
   points="8.04216,3.34394 8.04216,3.26762 8.15658,3.2681 8.15658,3.34441 " />
   <polygon
   id="_64174560"
   class="fil12"
   points="8.22282,3.34503 8.22282,3.26872 8.33724,3.26921 8.33724,3.34552 " />
   <polygon
   id="_64173232"
   class="fil12"
   points="8.40668,3.34392 8.40668,3.26761 8.5211,3.26809 8.5211,3.3444 " />
   <polygon
   id="_64171904"
   class="fil12"
   points="7.96934,3.5713 7.96934,3.49499 8.08376,3.49546 8.08376,3.57177 " />
   <polygon
   id="_64170440"
   class="fil12"
   points="8.15,3.5724 8.15,3.49609 8.26442,3.49657 8.26442,3.57288 " />
   <polygon
   id="_64169112"
   class="fil12"
   points="8.40233,3.56575 8.40233,3.48944 8.51676,3.48992 8.51676,3.56623 " />
   <polygon
   id="_64167784"
   class="fil12"
   points="7.97326,3.76029 7.97326,3.68398 8.08768,3.68446 8.08768,3.76077 " />
   <polygon
   id="_64166456"
   class="fil12"
   points="8.15378,3.96267 8.15378,3.88636 8.2682,3.88684 8.2682,3.96315 " />
   <polygon
   id="_64165128"
   class="fil12"
   points="8.40612,3.95602 8.40612,3.87971 8.52054,3.88019 8.52054,3.9565 " />
   <polygon
   id="_64163800"
   class="fil12"
   points="8.40537,4.14736 8.40537,4.07105 8.51979,4.07152 8.51979,4.14783 " />
   <polygon
   id="_64162520"
   class="fil12"
   points="8.59038,2.95672 8.59038,2.88041 8.64451,2.88063 8.64451,2.95694 " />
   <polygon
   id="_64161240"
   class="fil12"
   points="8.5895,3.34932 8.5895,3.27301 8.64451,3.27325 8.64451,3.34956 " />
   <polygon
   id="_64159960"
   class="fil12"
   points="8.58515,3.57116 8.58515,3.49485 8.64451,3.4951 8.64451,3.57141 " />
   <polygon
   id="_64159072"
   class="fil12"
   points="8.58907,3.76016 8.58907,3.68384 8.64451,3.68408 8.64451,3.76039 " />
   <polygon
   id="_64158048"
   class="fil12"
   points="8.58894,3.96143 8.58894,3.88512 8.64451,3.88535 8.64451,3.96166 " />
   <polygon
   id="_47068672"
   class="fil12"
   points="8.58819,4.15276 8.58819,4.07645 8.64451,4.07669 8.64451,4.153 " />
   <polygon
   id="_47065928"
   class="fil12"
   points="8.58515,4.37162 8.58515,4.29531 8.64451,4.29556 8.64451,4.37187 " />
   <polygon
   id="_47063968"
   class="fil12"
   points="9.04086,2.65954 9.04086,2.58323 9.11055,2.52223 9.11055,2.59854 " />
   <polygon
   id="_47063576"
   class="fil12"
   points="8.93891,2.94946 8.93891,2.87315 9.00861,2.81215 9.00861,2.88845 " />
   <polygon
   id="_47062400"
   class="fil12"
   points="9.04895,2.85348 9.04895,2.77717 9.11864,2.71618 9.11864,2.79249 " />
   <polygon
   id="_47059264"
   class="fil12"
   points="8.94207,3.13678 8.94207,3.06047 9.01177,2.99947 9.01177,3.07578 " />
   <polygon
   id="_47058088"
   class="fil12"
   points="8.95017,3.33072 8.95017,3.25441 9.01986,3.19342 9.01986,3.26973 " />
   <polygon
   id="_47056520"
   class="fil12"
   points="9.15364,2.5686 9.15364,2.49229 9.22333,2.43129 9.22333,2.5076 " />
   <polygon
   id="_47053384"
   class="fil12"
   points="9.16173,2.76254 9.16173,2.68623 9.23143,2.62524 9.23143,2.70155 " />
   <polygon
   id="_47052208"
   class="fil12"
   points="9.16489,2.94986 9.16489,2.87356 9.23459,2.81255 9.23459,2.88886 " />
   <polygon
   id="_47050640"
   class="fil12"
   points="9.34498,2.51081 9.34498,2.4345 9.41467,2.49282 9.41467,2.56913 " />
   <polygon
   id="_47049464"
   class="fil12"
   points="9.35307,2.71862 9.35307,2.64231 9.42277,2.70062 9.42277,2.77693 " />
   <polygon
   id="_46980968"
   class="fil12"
   points="9.35623,2.91136 9.35623,2.83505 9.42593,2.89336 9.42593,2.96967 " />
   <polygon
   id="_46979400"
   class="fil12"
   points="9.46628,3.00377 9.46628,2.92746 9.53597,2.98578 9.53597,3.06209 " />
   <polygon
   id="_46977048"
   class="fil12"
   points="9.36433,3.11916 9.36433,3.04285 9.43403,3.10117 9.43403,3.17748 " />
   <polygon
   id="_46975872"
   class="fil12"
   points="9.47437,3.21158 9.47437,3.13527 9.54407,3.19359 9.54407,3.26989 " />
   <polygon
   id="_46972848"
   class="fil12"
   points="9.7291,2.7454 9.7291,2.66909 9.84352,2.66957 9.84352,2.74588 " />
   <polygon
   id="_46969960"
   class="fil12"
   points="9.73301,2.9344 9.73301,2.85809 9.84743,2.85857 9.84743,2.93488 " />
   <polygon
   id="_47139992"
   class="fil12"
   points="9.91367,2.9355 9.91367,2.85919 10.0281,2.85967 10.0281,2.93598 " />
   <polygon
   id="_46975480"
   class="fil12"
   points="7.97456,2.95686 7.97456,2.88055 8.08898,2.88102 8.08898,2.95733 " />
   <polygon
   id="_47047152"
   class="fil12"
   points="8.15522,2.95796 8.15522,2.88165 8.26964,2.88213 8.26964,2.95844 " />
   <path
   id="_47054952"
   class="fil12"
   d="m 12.5433,3.85621 c 0,0 -0.158914,0.354334 -0.06428,0.568461 0.09464,0.214131 0.171074,0.33902 0.0275,0.623096 -0.02512,0.0497 -0.03872,0.18303 0.0043,0.305279 0.05173,0.147017 0.0059,0.276362 0.0059,0.276304 -0.0035,-0.216376 -0.125721,-0.483316 -0.09426,-0.594782 0.02583,-0.091511 0.0619,-0.082276 0.08806,-0.215867 0.02696,-0.137677 -0.0522,-0.216313 -0.121663,-0.496444 -0.0351,-0.141544 0.09769,-0.438061 0.154434,-0.466046 z" />
   <path
   id="_47061224"
   class="fil14"
   d="m 12.3202,4.94339 c 0,0 0.07752,0.083019 -0.04321,0.168521 -0.12072,0.085498 -0.05556,0.31293 0.0074,0.416334 0.03462,0.056929 0.02648,0.083187 0.0066,0.125189 -0.02558,0.054017 -0.06679,0.109316 -0.05166,0.092621 0.05004,-0.05524 0.136629,-0.059897 0.126886,-0.168493 -0.008,-0.088817 -0.05099,-0.111755 -0.07714,-0.222576 -0.02695,-0.11423 0.0086,-0.114465 0.07805,-0.180918 0.03509,-0.033577 0.0098,-0.139034 -0.04689,-0.230677 z" />
   <path
   id="_47067496"
   class="fil12"
   d="m 14.6041,2.82519 c 0,0 -0.158914,0.467591 -0.06428,0.750158 0.09464,0.282571 0.171074,0.447377 0.02751,0.822253 -0.02512,0.065586 -0.03872,0.241527 0.0043,0.40285 0.05173,0.194008 0.0059,0.364695 0.0059,0.364616 -0.0035,-0.285531 -0.125721,-0.637792 -0.09426,-0.784888 0.02583,-0.120759 0.0619,-0.108573 0.08805,-0.284862 0.02697,-0.181685 -0.0522,-0.285452 -0.121659,-0.65512 -0.0351,-0.186783 0.09769,-0.578075 0.154434,-0.615007 z" />
   <path
   id="_47069064"
   class="fil12"
   d="m 14.4269,4.16083 c 0,0 0.07751,0.109554 -0.04322,0.222385 -0.12072,0.112823 -0.05556,0.412948 0.0074,0.549405 0.03463,0.075125 0.02648,0.109777 0.0066,0.165201 C 14.3721,5.169103 14.3309,5.242078 14.34602,5.220043 14.39606,5.147146 14.482653,5.141 14.472906,4.997697 c -0.008,-0.117202 -0.05099,-0.147471 -0.07713,-0.293714 -0.02695,-0.150743 0.0086,-0.151052 0.07805,-0.238747 0.03509,-0.044313 0.0098,-0.183475 -0.04689,-0.304407 z" />
   <path
   id="_47070240"
   class="fil12"
   d="m 14.2495,4.58535 c 0,0 -0.0492,0.109554 0.02743,0.222385 0.07661,0.112823 0.03526,0.412948 -0.0047,0.549405 -0.02198,0.075125 -0.01681,0.109773 -0.0042,0.165197 0.01623,0.071282 0.04239,0.144261 0.03279,0.122226 C 14.26906,5.571666 14.21411,5.56552 14.22029,5.422217 14.22539,5.305011 14.25265,5.274742 14.26924,5.128499 14.28635,4.977756 14.26374,4.977447 14.21971,4.889756 14.19744,4.845443 14.21351,4.706281 14.24947,4.585349 Z" />
   <path
   id="_47071808"
   class="fil2"
   d="m 11.5405,4.02694 v 0.463282 h 0.0085 c 0.08549,0 0.15115,-0.020342 0.197441,-0.061031 0.04581,-0.040688 0.06896,-0.098021 0.06896,-0.171996 0,-0.07398 -0.02314,-0.13085 -0.06896,-0.170612 C 11.700151,4.046821 11.634494,4.02694 11.549,4.02694 Z M 10.921728,5.47227 V 3.50262 h 0.774648 c 0.239005,0 0.422273,0.049008 0.548862,0.147029 0.127062,0.098021 0.190356,0.239502 0.190356,0.424447 0,0.113742 -0.02551,0.213146 -0.07699,0.298222 -0.05101,0.084614 -0.125643,0.151654 -0.223417,0.200201 L 12.497942,5.390897 11.848467,5.47227 11.540498,4.636325 v 0.788324 l -0.618772,0.04762 z" />
   <path
   id="_47072984"
   class="fil2"
   d="m 13.0361,3.55355 0.608782,-0.046467 v 1.22161 c 0,0.061805 0.01014,0.106915 0.03088,0.135785 0.02074,0.02842 0.053,0.042854 0.09632,0.042854 0.04378,0 0.07604,-0.014435 0.09632,-0.042854 0.02028,-0.028869 0.03042,-0.07398 0.03042,-0.135785 v -1.17514 l 0.595419,-0.046467 v 1.24822 c 0,0.23187 -0.06037,0.405098 -0.181575,0.520579 -0.121205,0.115485 -0.303242,0.173228 -0.54611,0.173228 -0.242868,0 -0.425366,-0.057743 -0.547494,-0.173228 C 13.09693,5.160404 13.036099,4.987176 13.036099,4.755306 v -1.20176 z" />
   <path
   id="_47074160"
   class="fil12"
   d="M 5.70955,5.91831 V 4.975689 L 6.449711,4.7462 H 6.656699 V 5.91763 Z M 6.83228,4.7462 h 0.746271 l 0.00785,-2.19067 h 1.05811 V 5.59344 H 6.832281 V 4.746192 Z M 8.8359,2.51926 9.33462,2.093988 l 0.481286,0.461351 0.535585,0.151932 8.6e-4,2.02501 0.16266,0.01395 0.0075,1.05369 H 8.8359004 Z" />
   <path
   id="_47075336"
   class="fil12"
   d="m 17.3216,4.26548 0.05412,1.45672 h 1.19606 L 18.55983,3.84921 18.560393,2.59719 18.474743,2.507368 C 18.383943,2.394424 18.249727,2.493672 18.266394,2.35831 L 18.299684,2.087851 18.113304,1.92846 18.138474,1.642562 17.943629,1.43962 17.925239,1.151165 h -0.0654 l -0.0239,0.296138 -0.185931,0.198899 0.006,0.281175 -0.196936,0.154692 0.01196,0.154536 0.0016,0.020671 H 16.91278 l -0.03769,0.083273 v 3.38166 h 0.361723 v -1.45727 l 0.08483,5.513e-4 z m -0.629015,1.62529 h -1.8046 V 5.198206 l 0.04529,-0.04271 0.166132,5.08e-5 0.134111,-0.134694 -0.345537,3.597e-4 v -0.119981 l 0.106763,-0.100691 0.457988,1.447e-4 0.122671,-0.123082 -0.687422,7.194e-4 v -0.110778 l 0.116529,-0.109906 0.789732,2.424e-4 0.124614,-0.125099 -1.03088,0.00108 V 4.226384 l 0.119981,-0.113202 0.482643,1.485e-4 0.390937,-0.510164 -0.138815,1.916e-4 0.180074,-0.220805 0.127734,5.08e-5 0.10326,-0.134694 -0.363792,4.926e-4 0.18016,-0.220801 0.35223,1.408e-4 0.09442,-0.123078 -0.619299,8.406e-4 0.180097,-0.220809 0.719298,2.268e-4 -0.0043,3.20585 z m -0.153367,-3.33074 -0.739035,0.001 0.180097,-0.220801 0.716628,2.229e-4 -0.157691,0.219574 z" />
   <polygon
   id="_47076512"
   class="fil2"
   points="9.55825,4.28817 9.88464,3.47303 10.5421,3.53684 10.1586,4.38296 10.6073,5.40153 9.91817,5.45979 9.55825,4.48606 9.55825,5.40153 8.93428,5.45979 8.93428,3.53129 9.55825,3.48135 " />
   <path
   id="_47077688"
   class="fil2"
   d="M 8.56392,5.28997 C 8.449052,5.343295 8.336879,5.383623 8.226941,5.410507 8.117011,5.43784 8.010217,5.451285 7.906567,5.451285 7.77375,5.451285 7.648115,5.428433 7.530104,5.383174 7.412093,5.3374696 7.307547,5.2715982 7.215559,5.1846702 7.1199859,5.0937067 7.048196,4.9884062 6.999735,4.8687652 6.951724,4.7495732 6.927491,4.6169362 6.927491,4.4717572 c 0,-0.144284 0.024232,-0.276472 0.072244,-0.395667 0.048461,-0.119641 0.120251,-0.224942 0.215824,-0.315901 0.091988,-0.087828 0.196534,-0.153699 0.314545,-0.198954 0.118011,-0.045259 0.243646,-0.067662 0.376463,-0.067662 0.126534,0 0.240956,0.017922 0.344607,0.05377 0.103201,0.035848 0.201468,0.091409 0.294351,0.166691 L 8.238162,4.171089 C 8.1879065,4.1280704 8.136302,4.096257 8.082461,4.0756449 8.0286164,4.0550329 7.969838,4.0447268 7.907016,4.0447268 c -0.117561,0 -0.211789,0.038984 -0.283134,0.116951 -0.071345,0.077968 -0.10724,0.181028 -0.10724,0.31008 0,0.123223 0.035895,0.225837 0.10724,0.30784 0.071345,0.081999 0.15929,0.122777 0.264739,0.122777 0.015701,0 0.032306,-0.00134 0.050252,-0.00403 0.01795,-0.00269 0.035449,-0.00627 0.05205,-0.011651 V 4.714622 H 7.715866 L 7.820865,4.286695 h 0.743054 v 1.00328 z" />
   <polygon
   id="_47078864"
   class="fil12"
   points="1.21732,5.30283 1.21732,5.05036 1.51394,5.05036 1.51394,5.30283 " />
   <path
   id="_47080040"
   class="fil2"
   d="M 2.46155,4.13294 C 2.4062861,4.1047353 2.351491,4.0839278 2.297647,4.0705213 2.2433254,4.057111 2.190423,4.050179 2.137521,4.050179 c -0.135562,0 -0.247036,0.04115 -0.333949,0.123911 -0.087382,0.082761 -0.130839,0.190032 -0.130839,0.321801 0,0.134549 0.044403,0.242739 0.132731,0.324577 0.088801,0.081838 0.205467,0.122527 0.350006,0.122527 0.058098,0 0.114308,-0.0074 0.16768,-0.022195 C 2.376526,4.905544 2.428486,4.882426 2.47808,4.850984 L 2.396367,5.472395 C 2.345822,5.483491 2.295754,5.491815 2.24616,5.497824 2.197034,5.503834 2.148859,5.506614 2.101622,5.506614 1.789877,5.506614 1.536699,5.413215 1.342093,5.225959 1.147491,5.039168 1.050186,4.795964 1.050186,4.495893 1.050186,4.346088 1.075693,4.209232 1.126234,4.085318 1.177244,3.961869 1.252823,3.853675 1.353432,3.761668 1.447425,3.673355 1.555123,3.605854 1.676042,3.559152 1.797435,3.512454 1.925912,3.489336 2.061474,3.489336 c 0.061879,0 0.118085,0.00324 0.169099,0.010173 0.050541,0.00694 0.099194,0.01757 0.145011,0.031903 l 0.085967,0.60153 z" />
   <path
   id="_47081216"
   class="fil2"
   d="M 14.9628,3.9596 C 14.94372,3.939223 14.92955,3.915447 14.92059,3.888279 14.91159,3.86111 14.907,3.828843 14.907,3.791205 c 0,-0.05689 0.01041,-0.114062 0.03123,-0.17123 0.02111,-0.057172 0.05349,-0.11717 0.09744,-0.180285 l 0.220319,0.014149 -0.06101,0.165854 c -0.0107,0.028584 -0.01879,0.054623 -0.024,0.077831 -0.0055,0.023208 -0.0081,0.0433 -0.0081,0.059717 0,0.024338 0.0058,0.048113 0.01764,0.07104 0.01185,0.022923 0.02978,0.044434 0.05349,0.065093 z" />
   <path
   id="_47082392"
   class="fil2"
   d="m 15.6626,4.62182 h 0.234912 L 15.784951,4.061374 Z m -0.693811,0.781142 0.527042,-1.89563 h 0.593675 l 0.517256,1.89563 -0.537207,0.049454 -0.07943,-0.335626 h -0.41373 l -0.08282,0.335626 z" />
   <polygon
   id="_47263832"
   class="fil2"
   points="18.0589,4.39916 18.0589,3.51377 18.5977,3.47764 18.5977,5.41215 18.0589,5.41215 17.5468,4.49566 17.5468,5.40163 17.008,5.44279 17.008,3.50828 17.5468,3.50828 " />
   <path
   id="_47264968"
   class="fil12"
   d="M 4.3884,3.45839 C 4.39048,4.190149 4.39256,4.92193 4.39464,5.65374 H 4.656001 V 2.85559 L 4.53159,2.968288 4.543554,3.146501 4.555275,3.320902 C 4.561495,3.413398 4.445396,3.407143 4.3884,3.45839 Z M 4.838635,5.91828 H 5.631721 L 5.6323857,5.006139 5.6329526,3.562329 5.5472946,3.458745 C 5.4564992,3.328497 5.3222786,3.4429536 5.3389456,3.286854 L 5.3722408,2.974964 5.1858568,2.791156 5.2110276,2.461461 5.0161826,2.227433 4.9689336,1.3728 4.9084936,2.236293 4.8386346,2.322467 v 3.59582 z" />
   <path
   id="_47266144"
   class="fil2"
   d="M 3.62181,4.62156 H 3.856722 L 3.744161,4.061114 Z M 2.927995,5.40271 3.455037,3.50708 H 4.048716 L 4.565972,5.40271 4.028765,5.45216 3.949331,5.116534 H 3.535601 L 3.452778,5.45216 Z" />
   <path
   id="_47267320"
   class="fil12"
   d="M 6.77796,3.86447 C 6.78626,3.85873 6.959246,3.752116 6.959246,3.752116 L 7.062111,3.728564 c 0.016429,-0.00477 0.02618,-0.00217 0.030515,0.00908 0.00643,0.013055 0.012851,0.026105 0.019283,0.039152 0.00479,0.010458 5.435e-4,0.015357 -0.0078,0.017727 L 6.965897,3.83084 C 6.907951,3.849685 6.8485,3.864526 6.790405,3.88298 6.791825,3.88656 6.7896895,3.88699 6.784585,3.8919 6.278476,4.071958 6.22987,4.192866 6.249176,4.517217 l 0.089251,1.40189 H 6.289509 L 6.210928,4.562577 C 6.179075,4.151325 6.318238,4.031563 6.774514,3.870088 c 3.52e-5,-0.00202 9.853e-4,-0.00391 0.00345,-0.00562 z" />
   <polygon
   id="_46863360"
   class="fil2"
   points="6.01682,4.41826 6.01682,3.53456 6.57007,3.4985 6.57007,5.42931 6.01682,5.42931 5.49093,4.51457 5.49093,5.41881 4.93768,5.45989 4.93768,3.52908 5.49093,3.52908 " />
  </g>
 </g>
</svg>
